<svg xmlns="http://www.w3.org/2000/svg" x="0px" y="0px" width="100" height="100" viewBox="0 0 100 100">
<path d="M 25.970703 25 A 1.0001 1.0001 0 0 0 25.900391 25.005859 A 1.0001 1.0001 0 0 0 25.818359 25.017578 A 1.0001 1.0001 0 0 0 25.792969 25.021484 A 1.0001 1.0001 0 0 0 25.724609 25.039062 A 1.0001 1.0001 0 0 0 25.689453 25.050781 A 1.0001 1.0001 0 0 0 25.664062 25.060547 A 1.0001 1.0001 0 0 0 25.583984 25.091797 A 1.0001 1.0001 0 0 0 25.521484 25.123047 A 1.0001 1.0001 0 0 0 25.435547 25.175781 A 1.0001 1.0001 0 0 0 25.390625 25.208984 A 1.0001 1.0001 0 0 0 25.339844 25.25 A 1.0001 1.0001 0 0 0 25.292969 25.292969 A 1.0001 1.0001 0 0 0 25.283203 25.302734 L 1.2929688 49.292969 A 1.0001 1.0001 0 0 0 1.2929688 50.707031 L 25.244141 74.65625 A 1.0001 1.0001 0 0 0 25.292969 74.707031 A 1.0001 1.0001 0 0 0 25.296875 74.710938 A 1.0001 1.0001 0 0 0 25.361328 74.767578 A 1.0001 1.0001 0 0 0 25.371094 74.775391 A 1.0001 1.0001 0 0 0 25.417969 74.8125 A 1.0001 1.0001 0 0 0 25.466797 74.845703 A 1.0001 1.0001 0 0 0 25.490234 74.859375 A 1.0001 1.0001 0 0 0 25.546875 74.890625 A 1.0001 1.0001 0 0 0 25.625 74.925781 A 1.0001 1.0001 0 0 0 25.701172 74.953125 A 1.0001 1.0001 0 0 0 25.728516 74.960938 A 1.0001 1.0001 0 0 0 25.796875 74.978516 A 1.0001 1.0001 0 0 0 25.816406 74.982422 A 1.0001 1.0001 0 0 0 25.822266 74.982422 A 1.0001 1.0001 0 0 0 25.890625 74.992188 A 1.0001 1.0001 0 0 0 25.914062 74.996094 A 1.0001 1.0001 0 0 0 26 75 A 1.0001 1.0001 0 0 0 26.015625 75 L 74 75 A 1.0001 1.0001 0 0 0 74.007812 75 A 1.0001 1.0001 0 0 0 74.099609 74.994141 A 1.0001 1.0001 0 0 0 74.181641 74.982422 A 1.0001 1.0001 0 0 0 74.199219 74.980469 A 1.0001 1.0001 0 0 0 74.207031 74.978516 A 1.0001 1.0001 0 0 0 74.275391 74.960938 A 1.0001 1.0001 0 0 0 74.294922 74.955078 A 1.0001 1.0001 0 0 0 74.324219 74.945312 A 1.0001 1.0001 0 0 0 74.335938 74.939453 A 1.0001 1.0001 0 0 0 74.416016 74.908203 A 1.0001 1.0001 0 0 0 74.478516 74.876953 A 1.0001 1.0001 0 0 0 74.564453 74.824219 A 1.0001 1.0001 0 0 0 74.587891 74.808594 A 1.0001 1.0001 0 0 0 74.609375 74.791016 A 1.0001 1.0001 0 0 0 74.660156 74.75 A 1.0001 1.0001 0 0 0 74.666016 74.746094 A 1.0001 1.0001 0 0 0 74.707031 74.707031 A 1.0001 1.0001 0 0 0 74.716797 74.697266 L 98.707031 50.707031 A 1.0001 1.0001 0 0 0 98.707031 49.292969 L 74.755859 25.34375 A 1.0001 1.0001 0 0 0 74.703125 25.289062 A 1.0001 1.0001 0 0 0 74.638672 25.232422 A 1.0001 1.0001 0 0 0 74.632812 25.226562 A 1.0001 1.0001 0 0 0 74.628906 25.224609 A 1.0001 1.0001 0 0 0 74.582031 25.1875 A 1.0001 1.0001 0 0 0 74.533203 25.154297 A 1.0001 1.0001 0 0 0 74.527344 25.150391 A 1.0001 1.0001 0 0 0 74.466797 25.115234 A 1.0001 1.0001 0 0 0 74.453125 25.109375 A 1.0001 1.0001 0 0 0 74.375 25.074219 A 1.0001 1.0001 0 0 0 74.298828 25.046875 A 1.0001 1.0001 0 0 0 74.28125 25.041016 A 1.0001 1.0001 0 0 0 74.271484 25.039062 A 1.0001 1.0001 0 0 0 74.203125 25.021484 A 1.0001 1.0001 0 0 0 74.183594 25.017578 A 1.0001 1.0001 0 0 0 74.177734 25.017578 A 1.0001 1.0001 0 0 0 74.109375 25.007812 A 1.0001 1.0001 0 0 0 74.085938 25.003906 A 1.0001 1.0001 0 0 0 74.056641 25.001953 A 1.0001 1.0001 0 0 0 74 25 L 73.984375 25 L 26 25 A 1.0001 1.0001 0 0 0 25.992188 25 A 1.0001 1.0001 0 0 0 25.970703 25 z M 28.414062 27 L 71.585938 27 L 50 48.585938 L 28.414062 27 z M 25 28.414062 L 25 71.585938 L 3.4140625 50 L 25 28.414062 z M 27 28.414062 L 48.585938 50 L 27 71.585938 L 27 28.414062 z M 73 28.414062 L 73 71.585938 L 51.414062 50 L 73 28.414062 z M 75 28.414062 L 96.585938 50 L 75 71.585938 L 75 28.414062 z M 36.863281 30 A 0.50005 0.50005 0 0 0 36.509766 30.853516 L 49.646484 43.990234 A 0.50005 0.50005 0 0 0 50.353516 43.990234 L 55.490234 38.853516 A 0.50005 0.50005 0 1 0 54.783203 38.146484 L 50 42.929688 L 38.070312 31 L 63.136719 31 A 0.50005 0.50005 0 1 0 63.136719 30 L 36.863281 30 z M 58.126953 34.996094 A 0.50005 0.50005 0 0 0 57.783203 35.146484 L 56.783203 36.146484 A 0.50005 0.50005 0 1 0 57.490234 36.853516 L 58.490234 35.853516 A 0.50005 0.50005 0 0 0 58.126953 34.996094 z M 50 51.414062 L 71.585938 73 L 28.414062 73 L 50 51.414062 z M 49.990234 55.859375 A 0.50005 0.50005 0 0 0 49.646484 56.009766 L 36.509766 69.146484 A 0.50005 0.50005 0 0 0 36.863281 70 L 63.136719 70 A 0.50005 0.50005 0 1 0 63.136719 69 L 38.070312 69 L 50.353516 56.716797 A 0.50005 0.50005 0 0 0 49.990234 55.859375 z M 52.130859 57.994141 A 0.50005 0.50005 0 0 0 51.783203 58.853516 L 52.783203 59.853516 A 0.50005 0.50005 0 1 0 53.490234 59.146484 L 52.490234 58.146484 A 0.50005 0.50005 0 0 0 52.130859 57.994141 z M 55.130859 60.994141 A 0.50005 0.50005 0 0 0 54.783203 61.853516 L 56.783203 63.853516 A 0.50005 0.50005 0 1 0 57.490234 63.146484 L 55.490234 61.146484 A 0.50005 0.50005 0 0 0 55.130859 60.994141 z"></path>
</svg>