<svg xmlns="http://www.w3.org/2000/svg" x="0px" y="0px" width="100" height="100" viewBox="0,0,256,256">
<g fill="#000000" fill-rule="nonzero" stroke="none" stroke-width="1" stroke-linecap="butt" stroke-linejoin="miter" stroke-miterlimit="10" stroke-dasharray="" stroke-dashoffset="0" font-family="none" font-weight="none" font-size="none" text-anchor="none" style="mix-blend-mode: normal"><path d="M0,256v-256h256v256z" id="bgRectangle"></path></g><g fill="#e7e7e7" fill-rule="nonzero" stroke="none" stroke-width="1" stroke-linecap="butt" stroke-linejoin="miter" stroke-miterlimit="10" stroke-dasharray="" stroke-dashoffset="0" font-family="none" font-weight="none" font-size="none" text-anchor="none" style="mix-blend-mode: normal"><g transform="scale(2.56,2.56)"><path d="M25.9707,25c-0.0235,0.00113 -0.04695,0.00308 -0.07031,0.00586c-0.02749,0.00277 -0.05486,0.00668 -0.08203,0.01172c-0.00848,0.00119 -0.01694,0.0025 -0.02539,0.00391c-0.02299,0.00505 -0.04579,0.01092 -0.06836,0.01758c-0.01179,0.00369 -0.02351,0.0076 -0.03516,0.01172c-0.00851,0.00314 -0.01697,0.0064 -0.02539,0.00977c-0.02713,0.00926 -0.05385,0.01969 -0.08008,0.03125c-0.02119,0.00969 -0.04204,0.02011 -0.0625,0.03125c-0.02951,0.01612 -0.0582,0.03372 -0.08594,0.05273c-0.01528,0.01065 -0.03026,0.02172 -0.04492,0.0332c-0.01737,0.01312 -0.0343,0.0268 -0.05078,0.04102c-0.01608,0.01382 -0.03171,0.02815 -0.04687,0.04297c-0.00328,0.00323 -0.00653,0.00649 -0.00977,0.00977l-23.99023,23.99024c-0.39037,0.39053 -0.39037,1.02353 0,1.41406l23.95117,23.94922c0.01567,0.0175 0.03196,0.03443 0.04883,0.05078c0.0013,0.00131 0.0026,0.00261 0.00391,0.00391c0.02066,0.01979 0.04217,0.03869 0.06445,0.05664c0.00324,0.00262 0.00649,0.00523 0.00977,0.00781c0.01525,0.01283 0.03088,0.02521 0.04688,0.03711c0.01595,0.01155 0.03223,0.02262 0.04883,0.0332c0.00775,0.00466 0.01556,0.00922 0.02344,0.01367c0.01854,0.01102 0.03743,0.02145 0.05664,0.03125c0.02553,0.01283 0.05159,0.02456 0.07813,0.03516c0.02501,0.01014 0.05042,0.01926 0.07617,0.02734c0.00908,0.00273 0.01819,0.00534 0.02734,0.00781c0.02257,0.00666 0.04537,0.01252 0.06836,0.01758c0.0065,0.00137 0.01301,0.00267 0.01953,0.00391c0.00195,0.00001 0.00391,0.00001 0.00586,0c0.02267,0.00404 0.04547,0.0073 0.06836,0.00977c0.0078,0.00139 0.01561,0.0027 0.02344,0.00391c0.02858,0.00253 0.05725,0.00384 0.08594,0.00391c0.00521,0.00004 0.01042,0.00004 0.01563,0h47.98438c0.0026,0.00001 0.00521,0.00001 0.00781,0c0.03067,-0.00054 0.0613,-0.0025 0.0918,-0.00586c0.02749,-0.00277 0.05486,-0.00668 0.08203,-0.01172c0.00586,-0.0006 0.01172,-0.00125 0.01758,-0.00195c0.00261,-0.00064 0.00521,-0.00129 0.00781,-0.00195c0.02299,-0.00505 0.04579,-0.01092 0.06836,-0.01758c0.00653,-0.00189 0.01304,-0.00384 0.01953,-0.00586c0.00982,-0.0031 0.01958,-0.00636 0.0293,-0.00977c0.00392,-0.00193 0.00783,-0.00388 0.01172,-0.00586c0.02713,-0.00926 0.05385,-0.01969 0.08008,-0.03125c0.02119,-0.00969 0.04204,-0.02011 0.0625,-0.03125c0.02951,-0.01612 0.0582,-0.03372 0.08594,-0.05273c0.00789,-0.0051 0.0157,-0.01031 0.02344,-0.01562c0.00724,-0.00576 0.0144,-0.01162 0.02148,-0.01758c0.01737,-0.01312 0.0343,-0.0268 0.05078,-0.04102c0.00196,-0.0013 0.00391,-0.0026 0.00586,-0.00391c0.01404,-0.01263 0.02771,-0.02566 0.04102,-0.03906c0.00328,-0.00323 0.00653,-0.00649 0.00977,-0.00977l23.99023,-23.99023c0.39037,-0.39053 0.39037,-1.02353 0,-1.41406l-23.95117,-23.94922c-0.01688,-0.01889 -0.03447,-0.03713 -0.05273,-0.05469c-0.02066,-0.01979 -0.04217,-0.03869 -0.06445,-0.05664c-0.00195,-0.00196 -0.0039,-0.00391 -0.00586,-0.00586c-0.0013,-0.00065 -0.0026,-0.0013 -0.00391,-0.00195c-0.01525,-0.01283 -0.03088,-0.02521 -0.04687,-0.03711c-0.01595,-0.01155 -0.03223,-0.02262 -0.04883,-0.0332c-0.00195,-0.00131 -0.0039,-0.00261 -0.00586,-0.00391c-0.01977,-0.01242 -0.03996,-0.02415 -0.06055,-0.03516c-0.00454,-0.00199 -0.0091,-0.00394 -0.01367,-0.00586c-0.02553,-0.01283 -0.05159,-0.02456 -0.07812,-0.03516c-0.02501,-0.01014 -0.05042,-0.01926 -0.07617,-0.02734c-0.00584,-0.00201 -0.0117,-0.00396 -0.01758,-0.00586c-0.00325,-0.00067 -0.00651,-0.00132 -0.00977,-0.00195c-0.02257,-0.00666 -0.04537,-0.01252 -0.06836,-0.01758c-0.0065,-0.00137 -0.01301,-0.00267 -0.01953,-0.00391c-0.00195,-0.00001 -0.00391,-0.00001 -0.00586,0c-0.02267,-0.00404 -0.04547,-0.0073 -0.06836,-0.00977c-0.0078,-0.00139 -0.01561,-0.0027 -0.02344,-0.00391c-0.00976,-0.00079 -0.01952,-0.00145 -0.0293,-0.00195c-0.01886,-0.00119 -0.03775,-0.00184 -0.05664,-0.00195h-0.01562h-47.98437c-0.0026,-0.00001 -0.00521,-0.00001 -0.00781,0c-0.00716,-0.00008 -0.01432,-0.00008 -0.02148,0zM28.41406,27h43.17188l-21.58594,21.58594zM25,28.41406v43.17188l-21.58594,-21.58594zM27,28.41406l21.58594,21.58594l-21.58594,21.58594zM73,28.41406v43.17188l-21.58594,-21.58594zM75,28.41406l21.58594,21.58594l-21.58594,21.58594zM36.86328,30c-0.20218,0.00008 -0.38443,0.1219 -0.46179,0.3087c-0.07737,0.1868 -0.03464,0.4018 0.10828,0.54482l13.13672,13.13672c0.19527,0.19518 0.51177,0.19518 0.70703,0l5.13672,-5.13672c0.13061,-0.12541 0.18323,-0.31163 0.13755,-0.48685c-0.04568,-0.17522 -0.18251,-0.31205 -0.35773,-0.35773c-0.17522,-0.04568 -0.36144,0.00693 -0.48685,0.13755l-4.7832,4.7832l-11.92969,-11.92969h25.06641c0.18032,0.00255 0.34804,-0.09219 0.43894,-0.24794c0.0909,-0.15575 0.0909,-0.34838 0,-0.50413c-0.0909,-0.15575 -0.25863,-0.25049 -0.43894,-0.24794zM58.12695,34.99609c-0.12976,0.00361 -0.25303,0.05754 -0.34375,0.15039l-1,1c-0.13061,0.12541 -0.18323,0.31163 -0.13755,0.48685c0.04568,0.17522 0.18251,0.31205 0.35773,0.35773c0.17522,0.04568 0.36144,-0.00693 0.48685,-0.13755l1,-1c0.14714,-0.14386 0.19113,-0.36316 0.11086,-0.55264c-0.08028,-0.18947 -0.26843,-0.31042 -0.47414,-0.30478zM50,51.41406l21.58594,21.58594h-43.17188zM49.99023,55.85938c-0.12976,0.00361 -0.25303,0.05754 -0.34375,0.15039l-13.13672,13.13672c-0.14292,0.14302 -0.18565,0.35802 -0.10828,0.54482c0.07737,0.1868 0.25961,0.30862 0.46179,0.3087h26.27344c0.18032,0.00255 0.34804,-0.09219 0.43894,-0.24794c0.0909,-0.15575 0.0909,-0.34838 0,-0.50413c-0.0909,-0.15575 -0.25863,-0.25049 -0.43894,-0.24794h-25.06641l12.2832,-12.2832c0.14714,-0.14386 0.19113,-0.36316 0.11086,-0.55264c-0.08028,-0.18947 -0.26844,-0.31042 -0.47414,-0.30478zM52.13086,57.99414c-0.20372,0.00004 -0.38705,0.12367 -0.46345,0.31252c-0.0764,0.18885 -0.03059,0.40518 0.1158,0.54685l1,1c0.12541,0.13061 0.31163,0.18322 0.48685,0.13755c0.17522,-0.04568 0.31205,-0.18251 0.35773,-0.35773c0.04568,-0.17522 -0.00693,-0.36144 -0.13755,-0.48685l-1,-1c-0.09421,-0.09737 -0.22389,-0.15234 -0.35937,-0.15234zM55.13086,60.99414c-0.20372,0.00004 -0.38705,0.12367 -0.46345,0.31252c-0.0764,0.18885 -0.03059,0.40518 0.1158,0.54685l2,2c0.12541,0.13061 0.31163,0.18322 0.48685,0.13755c0.17522,-0.04568 0.31205,-0.18251 0.35773,-0.35773c0.04568,-0.17522 -0.00693,-0.36144 -0.13755,-0.48685l-2,-2c-0.09421,-0.09737 -0.22389,-0.15234 -0.35937,-0.15234z"></path></g></g>
</svg>